<svg width="18" height="24" viewBox="0 0 18 24" fill="none" xmlns="http://www.w3.org/2000/svg">
<path d="M17.9902 24.0007H15.9902V18.9577C15.9894 18.1737 15.6776 17.4221 15.1233 16.8677C14.5689 16.3133 13.8172 16.0015 13.0332 16.0007H4.94723C4.16323 16.0015 3.41157 16.3133 2.8572 16.8677C2.30282 17.4221 1.99103 18.1737 1.99023 18.9577V24.0007H-0.00976562V18.9577C-0.0081778 17.6435 0.514586 16.3836 1.44386 15.4544C2.37313 14.5251 3.63304 14.0023 4.94723 14.0007H13.0332C14.3474 14.0023 15.6073 14.5251 16.5366 15.4544C17.4659 16.3836 17.9886 17.6435 17.9902 18.9577V24.0007Z" fill="black"/>
<path d="M8.99024 12C7.80355 12 6.64351 11.6481 5.65682 10.9888C4.67012 10.3295 3.90109 9.39246 3.44696 8.2961C2.99283 7.19975 2.87401 5.99335 3.10553 4.82946C3.33704 3.66558 3.90848 2.59648 4.7476 1.75736C5.58671 0.918247 6.65581 0.346802 7.8197 0.115291C8.98358 -0.11622 10.19 0.00259972 11.2863 0.456726C12.3827 0.910851 13.3198 1.67989 13.9791 2.66658C14.6383 3.65328 14.9902 4.81331 14.9902 6C14.9887 7.59081 14.356 9.11602 13.2311 10.2409C12.1063 11.3658 10.581 11.9984 8.99024 12ZM8.99024 2C8.19911 2 7.42575 2.2346 6.76796 2.67412C6.11016 3.11365 5.59747 3.73836 5.29472 4.46927C4.99197 5.20017 4.91276 6.00444 5.0671 6.78036C5.22144 7.55629 5.6024 8.26902 6.16181 8.82843C6.72122 9.38784 7.43395 9.7688 8.20988 9.92314C8.9858 10.0775 9.79007 9.99827 10.521 9.69552C11.2519 9.39277 11.8766 8.88008 12.3161 8.22228C12.7556 7.56449 12.9902 6.79113 12.9902 6C12.9902 4.93914 12.5688 3.92172 11.8187 3.17158C11.0685 2.42143 10.0511 2 8.99024 2Z" fill="black"/>
</svg>
