<svg width="24" height="23" viewBox="0 0 24 23" fill="none" xmlns="http://www.w3.org/2000/svg">
<g id="linkedin">
<path id="Shape" fill-rule="evenodd" clip-rule="evenodd" d="M2.15878 0H21.8412C22.7574 0 23.5 0.742615 23.5 1.65878V21.3412C23.5 22.2574 22.7574 23 21.8412 23H2.15878C1.24261 23 0.5 22.2574 0.5 21.3412V1.65878C0.5 0.742615 1.24261 0 2.15878 0ZM5.85746 17.3848H8.65823V8.95858H5.85746V17.3848ZM7.25793 7.80798H7.23969C6.29984 7.80798 5.69199 7.161 5.69199 6.35241C5.69199 5.52557 6.31844 4.89648 7.27654 4.89648C8.23463 4.89648 8.82423 5.52557 8.84248 6.35241C8.84248 7.161 8.23463 7.80798 7.25793 7.80798ZM15.9568 17.3848H18.7572V12.5532C18.7572 9.96511 17.3755 8.76082 15.5329 8.76082C14.0469 8.76082 13.381 9.57748 13.0088 10.1516V8.95858H10.2082C10.2449 9.7491 10.2082 17.3848 10.2082 17.3848H13.0088V12.6792C13.0088 12.4274 13.0269 12.1758 13.1009 11.9957C13.3034 11.4926 13.7642 10.9715 14.5379 10.9715C15.5513 10.9715 15.9568 11.7441 15.9568 12.877V17.3848Z" fill="black"/>
</g>
</svg>
