<svg width="19" height="23" viewBox="0 0 19 23" fill="none" xmlns="http://www.w3.org/2000/svg">
<path d="M3.31932 12.4981C3.34895 12.4263 3.64548 11.3198 3.66626 11.2449C3.20331 10.5684 2.68904 8.35319 3.08351 6.55508C3.50905 3.9168 6.38813 2.61986 9.10638 2.61986V2.61494C12.5097 2.61705 15.0572 4.45586 15.0599 7.62268C15.062 10.1015 13.5243 13.3779 10.8986 13.3779C10.8978 13.3779 10.8973 13.3779 10.8966 13.3779C9.95947 13.3779 8.77299 12.9652 8.46183 12.5599C8.10278 12.0928 8.0146 11.5163 8.20434 10.9004C8.66927 9.45921 9.26215 7.73288 9.33136 6.58176C9.3955 5.49538 8.60169 4.78857 7.57225 4.78857C6.79759 4.78857 5.79146 5.2255 5.29002 6.45331C4.87586 7.47335 4.88471 8.5413 5.31713 9.71786C5.48572 10.1778 4.56976 13.1761 4.2763 14.1525C3.54718 16.5779 2.549 19.6467 2.7624 21.3556L2.9684 23L4.00308 21.6832C5.43494 19.863 6.91541 15.1546 7.30988 14.009C8.47611 15.4756 10.9047 15.5177 11.1879 15.5177C14.6658 15.5177 18.6095 12.164 18.4977 7.49634C18.3996 3.40301 15.3147 0 9.77172 0V0.0052643C4.49928 0.0052643 1.42198 2.73813 0.668644 6.19115C-0.0212652 9.39288 1.51305 11.8297 3.31932 12.4981Z" fill="black"/>
</svg>
