<svg width="29" height="23" viewBox="0 0 29 23" fill="none" xmlns="http://www.w3.org/2000/svg">
<path d="M10.9459 23C9.73507 23 8.4888 22.9016 7.23506 22.7043C5.02685 22.3566 2.79152 21.1973 2.15898 20.8502L0.5 19.9398L2.29613 19.347C4.25952 18.6991 5.45388 18.2971 6.93235 17.6676C5.45196 16.9481 4.31101 15.6537 3.76179 13.9805L3.34394 12.7074L3.68659 12.7599C3.36167 12.4312 3.10511 12.0976 2.90623 11.7943C2.19893 10.716 1.82445 9.39852 1.90413 8.26947L1.98275 7.15823L2.64561 7.41594C2.36598 6.88593 2.1639 6.31991 2.04512 5.72666C1.75567 4.27987 1.99791 2.74282 2.72743 1.39873L3.30485 0.334865L4.07709 1.2658C6.51942 4.21041 9.61288 5.95714 13.2844 6.46849C13.1344 5.431 13.2468 4.42974 13.6187 3.53225C14.0517 2.48725 14.822 1.60113 15.8457 0.969496C16.9826 0.268186 18.3613 -0.0716422 19.7278 0.012618C21.1777 0.102024 22.494 0.647249 23.5395 1.59041C24.0501 1.45726 24.4262 1.31511 24.9347 1.12301C25.2406 1.00745 25.5875 0.876231 26.0216 0.72615L27.6212 0.172991L26.578 3.16305C26.6468 3.15726 26.7178 3.15233 26.7919 3.14911L28.5 3.0715L27.4904 4.45633C27.4325 4.53565 27.4178 4.55817 27.3973 4.58925C27.3159 4.71232 27.2146 4.86541 25.8289 6.72256C25.482 7.1876 25.3087 7.79329 25.341 8.42835C25.4638 10.8417 25.1688 13.0251 24.4636 14.9179C23.7967 16.7086 22.7632 18.245 21.3922 19.4844C19.6956 21.0178 17.5322 22.0678 14.962 22.6046C13.7012 22.8679 12.3472 23 10.9459 23Z" fill="black"/>
</svg>
