<svg width="24" height="24" viewBox="0 0 24 24" fill="none" xmlns="http://www.w3.org/2000/svg">
<path id="Vector" d="M17.4951 0.804443C16.369 0.821958 15.2675 1.1363 14.3018 1.71571C13.3361 2.29513 12.5404 3.11911 11.9951 4.10444C11.4497 3.11911 10.654 2.29513 9.68831 1.71571C8.72262 1.1363 7.62113 0.821958 6.49508 0.804443C4.70002 0.882434 3.00878 1.6677 1.79086 2.98868C0.572935 4.30965 -0.0726751 6.05897 -0.00492452 7.85444C-0.00492452 14.6294 10.9511 22.4544 11.4171 22.7864L11.9951 23.1954L12.5731 22.7864C13.0391 22.4564 23.9951 14.6294 23.9951 7.85444C24.0628 6.05897 23.4172 4.30965 22.1993 2.98868C20.9814 1.6677 19.2901 0.882434 17.4951 0.804443ZM11.9951 20.7334C8.74207 18.3034 1.99508 12.3334 1.99508 7.85444C1.92672 6.58916 2.36144 5.34817 3.20444 4.40214C4.04744 3.45611 5.23031 2.88179 6.49508 2.80444C7.75984 2.88179 8.94271 3.45611 9.78571 4.40214C10.6287 5.34817 11.0634 6.58916 10.9951 7.85444H12.9951C12.9267 6.58916 13.3614 5.34817 14.2044 4.40214C15.0474 3.45611 16.2303 2.88179 17.4951 2.80444C18.7598 2.88179 19.9427 3.45611 20.7857 4.40214C21.6287 5.34817 22.0634 6.58916 21.9951 7.85444C21.9951 12.3354 15.2481 18.3034 11.9951 20.7334Z" fill="black"/>
</svg>
