<svg width="34" height="23" viewBox="0 0 34 23" fill="none" xmlns="http://www.w3.org/2000/svg">
<g id="youtube">
<path id="Shape" fill-rule="evenodd" clip-rule="evenodd" d="M28.253 0.192364C30.2309 0.305273 31.2024 0.602182 32.0975 2.21636C33.0298 3.82845 33.5 6.60518 33.5 11.4958V11.5021V11.5125C33.5 16.3802 33.0298 19.1778 32.0996 20.7732C31.2044 22.3874 30.233 22.6801 28.2551 22.816C26.2771 22.931 21.3086 23 17.0041 23C12.6914 23 7.72081 22.931 5.74494 22.8139C3.77112 22.678 2.79969 22.3853 1.89631 20.7711C0.974375 19.1757 0.5 16.3781 0.5 11.5105V11.5063V11.5V11.4937C0.5 6.60518 0.974375 3.82845 1.89631 2.21636C2.79969 0.600091 3.77319 0.305273 5.747 0.190273C7.72081 0.0564546 12.6914 0 17.0041 0C21.3086 0 26.2771 0.0564545 28.253 0.192364ZM23.1875 11.5L12.875 5.22727V17.7727L23.1875 11.5Z" fill="black"/>
</g>
</svg>
